# xmcd
#
# Track frame offsets: 
#        150
#        19857
#        38022
#        54482
#        70817
#        89122
#        107737
#        125867
#        144070
#        161945
#        177935
#        195510
#        210905
#
# Disc length: 3083 seconds
#
# Revision: 7
# Processed by: cddbd v1.5.2PL0 Copyright (c) Steve Scherf et al.
# Submitted via: ExactAudioCopy v0.95b4
#
DISCID=b50c090d
DTITLE=ALEXIOU - OS THN AKRH TOU OURANOU SOU
DYEAR=2003
DGENRE=Ethnic
TTITLE0=To Kyma
TTITLE1=Apopse Thelo Na Pio
TTITLE2=I Hara Fernei Hara
TTITLE3=To Poly Mazi Skotonei
TTITLE4=Esy Me Ksereis Pio Poly
TTITLE5=Oi Filoi Mou Haramata
TTITLE6=Mia Mera Meta
TTITLE7=Ola Einai Sto Myalo
TTITLE8=Na Me Lene Maria
TTITLE9=Ta Kalytera Tha'rthoun
TTITLE10=Tha Megalonoume Mazi
TTITLE11=Ena Limani I Agkalia Mou
TTITLE12=Echo Mia Agapi Gia Sena
EXTD=
EXTT0=
EXTT1=
EXTT2=
EXTT3=
EXTT4=
EXTT5=
EXTT6=
EXTT7=
EXTT8=
EXTT9=
EXTT10=
EXTT11=
EXTT12=
PLAYORDER=
